<?xml version="1.0" encoding="UTF-8" standalone="no"?>
<!-- Created with Inkscape (http://www.inkscape.org/) -->

<svg
   width="55.830757mm"
   height="86.975143mm"
   viewBox="0 0 55.830757 86.975143"
   version="1.1"
   id="svg1"
   xml:space="preserve"
   xmlns="http://www.w3.org/2000/svg"
   xmlns:svg="http://www.w3.org/2000/svg"><defs
     id="defs1" /><g
     id="layer1"
     transform="translate(-134.12949,-40.784824)"><path
       style="fill:#000000;stroke-width:0.753143"
       d="m 163.24331,127.46855 c -3.15143,-0.63209 -6.87227,-2.32959 -9.58687,-4.37366 -2.01923,-1.52046 -4.41032,-4.00006 -5.59532,-5.80243 l -0.84387,-1.28354 h -2.45908 c -1.51717,0 -2.98571,-0.11978 -3.83395,-0.31271 -1.48823,-0.33849 -3.23688,-1.35066 -4.32029,-2.5007 -0.84838,-0.90058 -2.01299,-2.868 -2.2838,-3.85812 -0.28216,-1.03168 -0.23801,-59.671242 0.0461,-61.169158 0.4787,-2.524097 2.66391,-5.448379 4.8196,-6.449648 1.93007,-0.896472 2.19427,-0.908848 19.67359,-0.921609 l 16.63897,-0.01215 1.14365,0.461868 c 3.1885,1.287693 5.29707,3.870417 5.94374,7.280306 0.10696,0.563973 0.18594,9.094636 0.18594,20.083065 v 19.102638 h 0.7609 c 1.88201,0 3.86248,1.057925 5.1565,2.754493 1.20702,1.582527 1.23292,1.837579 1.26343,12.441415 0.0261,9.05901 0.005,9.70092 -0.37485,11.1368 -0.94062,3.56071 -2.55141,6.33928 -5.18584,8.94545 -2.49785,2.47104 -4.93149,3.83123 -8.01556,4.47998 -1.83803,0.38665 -11.20201,0.38501 -13.13295,-0.002 z m 11.34056,-3.49988 c 2.96825,-0.48161 4.96859,-1.55686 7.41073,-3.98348 1.95601,-1.94359 3.06546,-3.89848 3.78338,-6.6664 0.39057,-1.50585 0.41235,-2.09354 0.3931,-10.60936 -0.0112,-4.95836 -0.10041,-9.225691 -0.19822,-9.48295 -0.29273,-0.769938 -1.35151,-1.528391 -2.13359,-1.528391 -1.48142,0 -2.04902,0.650113 -2.0576,2.356736 -0.005,1.118357 -0.0709,1.325403 -0.57861,1.833037 -1.09068,1.090679 -2.40134,0.922871 -3.05759,-0.391469 -0.28225,-0.565301 -0.32356,-1.052035 -0.23673,-2.789537 0.0765,-1.530868 0.0339,-2.235343 -0.15625,-2.58371 -0.7557,-1.38445 -2.54594,-1.712436 -3.599,-0.659377 l -0.6098,0.609805 0.0413,2.395975 c 0.0319,1.849682 -0.03,2.533889 -0.27148,3.000846 -0.64235,1.242174 -2.18918,1.476477 -3.13167,0.474352 -0.44096,-0.468862 -0.46691,-0.663406 -0.56195,-4.212352 -0.10838,-4.047602 -0.1903,-4.374843 -1.25814,-5.025958 -0.76093,-0.463966 -1.5457,-0.494612 -2.3265,-0.09085 -1.13736,0.588152 -1.19781,0.836682 -1.19781,4.924427 v 3.738633 l -0.57889,0.647891 c -0.49251,0.551203 -0.70649,0.64454 -1.4339,0.62547 -0.66379,-0.0174 -0.95769,-0.141802 -1.31416,-0.556226 -0.43461,-0.505261 -0.46044,-0.701018 -0.48293,-3.66118 -0.013,-1.720058 -0.0803,-6.83381 -0.14945,-11.36389 l -0.12569,-8.236512 -0.63881,-0.570463 c -1.23718,-1.104809 -3.02746,-0.879117 -3.87263,0.488203 -0.36544,0.591201 -0.3785,1.213964 -0.35559,16.946222 l 0.0238,16.332468 -0.44004,0.35632 c -0.55956,0.4531 -1.42875,0.45647 -1.96029,0.008 -0.22712,-0.19179 -1.41382,-2.25939 -2.63711,-4.59467 -1.22329,-2.335266 -2.41488,-4.367962 -2.64798,-4.517107 -1.37429,-0.879264 -3.23271,-0.02086 -3.44089,1.589373 -0.0852,0.659174 0.24862,1.779664 1.9295,6.476244 2.17622,6.08068 2.86385,7.62356 4.436,9.95344 3.01376,4.46632 8.54175,8.02819 13.58944,8.75611 1.71812,0.24777 8.34064,0.25499 9.84604,0.0108 z m -29.70686,-12.8074 c -0.22778,-0.56693 -1.17611,-3.13806 -2.10739,-5.71361 -2.35377,-6.509561 -2.41134,-7.856422 -0.44224,-10.347518 1.12136,-1.418628 2.62173,-2.10807 4.57585,-2.102685 1.81338,0.0053 3.07231,0.510744 4.3538,1.749017 l 0.86659,0.837359 -0.0695,-11.557606 -0.0695,-11.55761 0.52511,-1.119895 c 1.48275,-3.162265 4.48808,-4.565726 7.69262,-3.592379 1.72795,0.524848 2.9181,1.529912 3.85257,3.253439 l 0.68292,1.259566 0.0645,5.237082 0.0645,5.237081 0.73254,-0.155719 c 2.31431,-0.491965 4.52488,0.212543 6.07431,1.935886 l 0.8771,0.975546 0.95744,-0.288145 c 1.62081,-0.487788 3.11553,-0.365372 4.92928,0.403707 0.33067,0.140205 0.34872,-0.802301 0.34872,-18.198737 0,-17.838955 -0.011,-18.375981 -0.39725,-19.408365 -0.47472,-1.268784 -1.53386,-2.361283 -2.85402,-2.943875 -0.95396,-0.420993 -1.05492,-0.42338 -16.97467,-0.401496 -18.26935,0.02512 -17.42467,-0.04579 -19.02473,1.596938 -1.70771,1.753235 -1.58104,-0.786724 -1.62636,32.611007 l -0.0401,29.516862 0.52848,0.90179 c 0.29067,0.49598 0.9436,1.26719 1.45096,1.71379 1.02904,0.90578 1.75413,1.10152 4.30568,1.16229 l 1.13683,0.0271 z m 12.37289,-47.5448 -0.58247,-0.582479 v -3.402903 c 0,-1.871597 -0.0294,-3.402903 -0.0653,-3.402903 -0.0359,0 -0.70523,0.639951 -1.48739,1.422113 -1.36775,1.367746 -1.45095,1.41752 -2.1765,1.301977 -1.39782,-0.222605 -2.07078,-1.616499 -1.31779,-2.72957 0.36438,-0.538642 4.30538,-4.883209 5.3726,-5.922777 0.70115,-0.682985 1.68924,-0.863057 2.46314,-0.448886 0.7246,0.387798 6.17779,6.563189 6.20194,7.023312 0.0437,0.83257 -0.041,1.045503 -0.63438,1.595608 -1.03313,0.957726 -1.9108,0.648681 -3.65393,-1.286629 l -1.12953,-1.254052 0.0568,3.653654 0.0568,3.653654 -0.55911,0.48118 c -0.79949,0.688067 -1.79516,0.648435 -2.5449,-0.101299 z"
       id="path1" /></g></svg>
