<?xml version="1.0" encoding="UTF-8" standalone="no"?>
<!-- Created with Inkscape (http://www.inkscape.org/) -->

<svg
   width="76.531624mm"
   height="76.505768mm"
   viewBox="0 0 76.531624 76.505768"
   version="1.1"
   id="svg1"
   xml:space="preserve"
   xmlns="http://www.w3.org/2000/svg"
   xmlns:svg="http://www.w3.org/2000/svg"><defs
     id="defs1" /><g
     id="layer1"
     transform="translate(-5.5626365,-11.269414)"><path
       d="m 30.897486,87.49964 c -0.242862,-0.17011 -1.166154,-2.01095 -2.242988,-4.47203 -1.912051,-4.36996 -2.005122,-4.78981 -1.219406,-5.50087 0.359629,-0.32546 7.911104,-2.69047 8.590664,-2.69047 0.622111,0 1.395355,0.83792 1.41511,1.53349 0.03095,1.09086 -0.475256,1.59033 -2.083286,2.05543 -0.795225,0.23001 -1.580369,0.46899 -1.744766,0.53106 -0.633144,0.2391 4.383684,2.12432 7.423256,2.78952 1.291377,0.28261 2.540036,0.36012 5.828138,0.36175 4.639174,0.002 6.735149,-0.29789 10.461633,-1.49829 1.88755,-0.60804 7.372955,-3.12786 7.372955,-3.38692 0,-0.075 -0.73979,-0.2947 -1.643968,-0.48813 -2.379676,-0.50908 -2.920599,-0.87113 -2.932883,-1.96306 -0.0075,-0.64911 0.948946,-1.73125 1.522667,-1.72312 0.200231,0.003 2.291702,0.49117 4.64773,1.08519 4.535818,1.14361 4.982338,1.36196 4.982338,2.43639 0,0.74969 -2.757636,8.27477 -3.194926,8.71835 -0.865098,0.87754 -2.78315,0.13635 -2.78315,-1.07548 0,-0.28479 0.269015,-1.21642 0.597807,-2.07028 0.328792,-0.85387 0.598018,-1.61403 0.598274,-1.68925 2.56e-4,-0.0752 -1.309595,0.50241 -2.910793,1.2836 -9.838158,4.79989 -19.475204,5.28974 -29.122041,1.48032 -1.342654,-0.53021 -2.441191,-0.91841 -2.441191,-0.86268 0,0.0557 0.359762,0.9003 0.799471,1.87684 0.883371,1.96184 0.891518,2.49884 0.04798,3.16237 -0.59318,0.46659 -1.392571,0.50975 -1.96862,0.10627 z M 16.13413,75.14498 C 13.609193,74.35587 11.399149,72.06407 10.715762,69.52617 10.485964,68.67277 9.615628,64.082856 6.999493,49.927621 5.726091,43.037564 5.489263,41.436808 5.5799,40.332364 c 0.179843,-2.191477 1.527349,-4.327996 3.434634,-5.44574 1.093639,-0.640915 1.63953,-0.768126 10.749076,-2.504892 4.055127,-0.773124 9.883748,-1.890303 12.952493,-2.48262 3.068745,-0.592317 8.22483,-1.578439 11.457976,-2.191382 23.501583,-4.455462 23.948837,-4.531752 26.004621,-4.435715 2.09614,0.09792 3.1732,0.527164 4.64647,1.851763 1.57365,1.414844 2.09401,2.616026 2.82177,6.513668 0.2105,1.127358 0.88389,4.69504 1.49643,7.928181 3.33787,17.618159 3.39851,18.143318 2.35188,20.369956 -0.83142,1.768786 -2.14899,3.157319 -3.598,3.791759 C 76.7627,64.2241 66.211913,66.38803 45.469327,70.3782 40.647012,71.30586 34.683885,72.45965 32.21793,72.94219 23.93752,74.5625 18.916888,75.43416 17.941917,75.42074 17.409476,75.41274 16.595972,75.28932 16.13413,75.14498 Z m 13.999539,-5.69281 c 6.242652,-1.20768 13.457545,-2.60108 16.033099,-3.09644 2.575553,-0.49536 7.372955,-1.431629 10.660899,-2.080597 3.287937,-0.648961 8.354353,-1.634494 11.258699,-2.19008 7.515174,-1.4376 8.067944,-1.566846 8.788944,-2.055026 0.84309,-0.57086 1.57349,-1.969816 1.57146,-3.009877 -0.003,-1.384729 -4.91898,-27.176153 -5.33189,-27.971807 -0.20555,-0.396101 -0.70703,-0.989939 -1.11438,-1.319638 -1.08683,-0.879649 -2.39365,-0.904119 -6.604263,-0.123663 -9.306251,1.724953 -27.464261,5.156176 -28.49548,5.38464 -1.314192,0.291154 -14.192008,2.746351 -19.428742,3.704152 -5.365942,0.981433 -6.007684,1.143919 -6.848187,1.733942 -0.696946,0.489246 -1.311563,1.779083 -1.31747,2.764847 -0.0024,0.401658 0.70766,4.526528 1.577926,9.166383 0.870267,4.639851 1.995398,10.667339 2.500291,13.394417 0.940689,5.080937 1.240908,6.014437 2.225952,6.921337 0.846426,0.77928 1.271338,0.96046 2.268092,0.96714 0.497627,0.003 6.012399,-0.98205 12.25505,-2.18973 z M 15.436411,56.393144 C 14.827762,56.0628 14.28371,54.588726 14.28371,53.269972 c 0,-1.399513 1.224659,-2.106105 2.686799,-1.550195 0.569402,0.216484 1.011286,1.074374 1.217439,2.36359 0.183708,1.148844 -0.03376,1.776732 -0.771098,2.226298 -0.758686,0.462596 -1.244217,0.483059 -1.980439,0.08348 z m 7.515505,-31.694135 c -2.301558,-0.601061 -4.408829,-1.256658 -4.682824,-1.456884 -0.371451,-0.271442 -0.493125,-0.535278 -0.478326,-1.037199 0.02471,-0.838247 2.681012,-8.042602 3.131441,-8.493032 0.539648,-0.539649 1.699147,-0.427077 2.254801,0.21891 0.602706,0.700687 0.595049,0.886238 -0.124404,3.014663 -0.328215,0.970988 -0.574811,1.783917 -0.54799,1.806509 0.02682,0.0226 0.766132,-0.357859 1.642917,-0.845447 6.233057,-3.466264 13.100501,-5.013715 19.821738,-4.466461 1.583544,0.128935 3.55525,0.371387 4.381576,0.538781 1.897379,0.384368 5.331832,1.541167 6.853015,2.308242 0.641279,0.323373 1.191428,0.559663 1.222547,0.525088 0.03111,-0.03458 -0.291797,-0.863312 -0.717602,-1.841636 -0.425812,-0.978324 -0.774193,-1.949186 -0.774193,-2.157472 0,-0.540545 1.073244,-1.543658 1.651582,-1.543658 0.985624,0 1.416263,0.652552 3.19878,4.847074 1.796706,4.227907 1.876449,4.611564 1.093549,5.261312 -0.26482,0.219779 -7.46996,2.397649 -8.577871,2.5928 -0.412858,0.07272 -0.685285,-0.04824 -1.145802,-0.508758 -0.666682,-0.666684 -0.747999,-1.173537 -0.320802,-1.99964 0.225326,-0.435732 0.595142,-0.645733 1.805729,-1.025393 0.837299,-0.262592 1.559887,-0.53814 1.605739,-0.61233 0.205781,-0.332964 -4.055804,-1.925032 -6.724499,-2.512181 -2.54716,-0.560407 -9.659151,-0.505836 -12.44313,0.09548 -2.765664,0.597357 -5.734458,1.65891 -8.290041,2.964273 -2.012684,1.028057 -2.553693,1.458628 -1.832758,1.458628 0.943341,0 3.189567,0.691069 3.608762,1.110264 0.876851,0.876851 0.323948,2.516844 -0.92911,2.755875 -0.273995,0.05227 -2.381265,-0.396746 -4.682824,-0.997806 z"
       style="fill:#000000;stroke-width:0.753143"
       id="path1-4" /></g></svg>
